<svg width="28" height="18" viewBox="0 0 28 18" fill="none" xmlns="http://www.w3.org/2000/svg">
<path fill-rule="evenodd" clip-rule="evenodd" d="M0 16.5005C0 17.3289 0.671573 18.0005 1.5 18.0005H26.5C27.3284 18.0005 28 17.3289 28 16.5005C28 15.6721 27.3284 15.0005 26.5 15.0005H1.5C0.671572 15.0005 0 15.6721 0 16.5005ZM0 9.00049C0 9.82892 0.671573 10.5005 1.5 10.5005H26.5C27.3284 10.5005 28 9.82892 28 9.00049C28 8.17206 27.3284 7.50049 26.5 7.50049H1.5C0.671572 7.50049 0 8.17206 0 9.00049ZM1.5 0.000488281C0.671572 0.000488281 0 0.672061 0 1.50049C0 2.32892 0.671573 3.00049 1.5 3.00049H26.5C27.3284 3.00049 28 2.32892 28 1.50049C28 0.672061 27.3284 0.000488281 26.5 0.000488281H1.5Z" fill="black"/>
</svg>
