<svg width="66" height="101" viewBox="0 0 66 101" fill="none" xmlns="http://www.w3.org/2000/svg">
<path d="M2.13322 33.2818C2.9896 32.4272 4.00357 32 5.17511 32C6.34666 32 7.35948 32.4272 8.21358 33.2818L33.3058 58.3187L58.4837 33.1963C59.283 32.3988 60.2821 32 61.481 32C62.68 32 63.7077 32.4273 64.564 33.2818C65.4204 34.1363 65.8486 35.148 65.8486 36.3169C65.8486 37.4859 65.4204 38.4965 64.564 39.3487L35.7037 68.06C35.3611 68.4018 34.99 68.6445 34.5904 68.788C34.1907 68.9316 33.7626 69.0022 33.3058 68.9999C32.8491 68.9999 32.4209 68.9282 32.0212 68.7846C31.6216 68.6411 31.2505 68.3995 30.9079 68.06L2.04758 39.2633C1.24828 38.4657 0.848633 37.4825 0.848633 36.3135C0.848633 35.1446 1.27682 34.134 2.13322 33.2818Z" fill="black"/>
</svg>
