<?xml version="1.0" encoding="UTF-8"?>
<svg id="_레이어_2" data-name="레이어 2" xmlns="http://www.w3.org/2000/svg" viewBox="0 0 244.55 35.81">
  <defs>
    <style>
      .cls-1 {
        fill: #231815;
      }
    </style>
  </defs>
  <g id="_레이어_1-2" data-name="레이어 1">
    <g>
      <path class="cls-1" d="m94.77,34.01c-.08,0-.14-.02-.18-.08-.05-.05-.07-.11-.07-.19s.02-.14.07-.19c.04-.05.11-.08.18-.08h1.02c.08,0,.14.02.19.08.05.05.07.11.07.19s-.02.14-.07.19c-.05.05-.11.08-.19.08h-1.02Zm1.28,1.46c0,.18-.11.27-.28.27h-1.21c-.2,0-.39-.04-.55-.11-.17-.07-.32-.17-.45-.3-.13-.12-.23-.27-.3-.44-.08-.17-.11-.35-.11-.54v-.53c0-.08.02-.14.07-.19.05-.05.12-.08.21-.08.09,0,.16.03.21.08.05.05.08.11.08.19v.53c0,.12.02.23.07.33.04.11.1.2.18.28.08.08.17.14.28.19.1.05.21.07.33.07h.93v-.74c0-.08.03-.14.08-.19.05-.05.12-.08.21-.08s.16.02.21.08c.05.05.08.12.08.19v1.01Zm-.43-3.88c.08,0,.14.03.19.08.05.05.07.11.07.19s-.02.14-.07.19c-.05.05-.11.07-.19.07h-.97c-.13,0-.25.02-.37.08-.11.05-.22.11-.31.21-.09.09-.15.19-.2.3-.05.12-.07.24-.07.38,0,.08-.02.14-.08.19-.05.05-.12.08-.21.08-.09,0-.16-.02-.21-.08-.05-.05-.07-.11-.07-.19,0-.2.04-.4.12-.58.08-.18.19-.34.32-.47.13-.14.3-.25.47-.33.18-.07.38-.12.59-.12h.97Z"/>
      <path class="cls-1" d="m100.89,34.53s-.04-.09-.04-.14c0-.03,0-.06.02-.09.01-.03.03-.06.06-.08.02-.03.05-.05.09-.06.03-.02.08-.02.13-.02.05,0,.11.01.15.04s.08.06.1.11l.61,1.13s.01.04.02.06c0,.02,0,.04,0,.06,0,.03,0,.07-.02.1-.01.03-.03.06-.05.09-.02.03-.06.05-.09.06-.03.02-.08.03-.13.03-.11,0-.19-.05-.24-.14l-.61-1.13Zm-1.62-.88c0-.08.03-.14.08-.19.05-.05.12-.08.2-.08.09,0,.16.03.21.08.05.05.08.12.08.19v1.89c0,.08-.03.14-.08.19-.05.05-.12.08-.21.08-.08,0-.15-.03-.2-.08-.05-.05-.08-.11-.08-.19v-1.89Zm.89.09c0-.07.03-.14.08-.19.05-.05.11-.08.19-.08h.36c.09,0,.17-.02.25-.05.08-.04.15-.09.21-.15.06-.06.11-.13.14-.21.03-.08.04-.17.04-.26s-.01-.18-.04-.25c-.03-.08-.08-.15-.14-.21-.06-.06-.13-.11-.21-.14-.08-.04-.17-.06-.25-.06h-.94v.79c0,.08-.03.14-.08.19-.05.05-.12.08-.21.08-.08,0-.15-.02-.2-.08-.05-.05-.08-.11-.08-.19v-1.06c0-.17.09-.26.26-.26h1.25c.17,0,.33.03.47.1.14.06.27.15.38.26.11.11.2.23.26.38.06.14.1.3.1.46s-.03.32-.1.47c-.06.15-.15.27-.26.39-.11.11-.24.2-.38.26-.14.06-.3.1-.47.1h-.36c-.08,0-.14-.03-.19-.08-.05-.05-.08-.11-.08-.19"/>
      <path class="cls-1" d="m108.15,35.56s0,.07-.02.1c-.01.03-.04.06-.06.08-.02.02-.05.04-.08.05-.04.01-.07.02-.12.02-.07,0-.13-.02-.18-.05-.05-.04-.08-.09-.1-.15l-.3-1.09h-.94c-.08,0-.13-.02-.18-.08-.04-.05-.07-.11-.07-.19s.02-.14.07-.19c.05-.05.11-.08.18-.08h1.16c.14,0,.23.06.27.2l.36,1.29s0,.03.01.04c0,.01,0,.03,0,.04m-.6-2.03c0,.08-.02.14-.08.19-.05.05-.12.08-.21.08-.07,0-.13-.02-.17-.05-.04-.03-.07-.08-.09-.13l-.39-1.46c-.02-.06-.05-.09-.11-.09-.05,0-.08.02-.1.09l-1,3.46c-.02.06-.05.11-.1.15-.05.03-.11.05-.18.05-.09,0-.16-.02-.21-.08-.05-.05-.08-.11-.08-.19v-.04s0-.03,0-.04l1.03-3.48c.02-.07.05-.13.09-.19.04-.05.09-.11.14-.15.05-.04.12-.07.18-.1.06-.02.14-.03.22-.03s.15,0,.22.03c.07.02.13.05.18.1.05.04.1.09.14.15.04.06.07.12.09.19l.41,1.47s0,.02,0,.03v.03Z"/>
      <path class="cls-1" d="m111.19,33.64s0-.08.02-.11c.02-.03.04-.06.06-.08.02-.02.05-.04.09-.06.03,0,.07-.02.12-.02.09,0,.16.02.21.08.05.05.08.11.08.19v1.9c0,.08-.03.14-.08.19-.05.05-.12.08-.21.08s-.16-.03-.2-.08c-.05-.05-.08-.11-.08-.19v-1.9Zm0-1.78c0-.17.09-.26.28-.26h1.19c.18,0,.34.03.5.1.15.07.28.16.4.27.12.11.21.25.27.4.06.15.1.31.1.49s-.03.34-.1.48c-.07.15-.15.28-.27.4s-.25.2-.4.27c-.15.06-.32.1-.5.1h-.34c-.08,0-.14-.03-.18-.08-.05-.05-.07-.11-.07-.18,0-.08.02-.14.07-.2.05-.05.11-.08.18-.08h.34c.1,0,.19-.02.27-.05.09-.04.17-.09.23-.16.07-.06.12-.14.15-.22.03-.09.05-.18.05-.28s-.02-.19-.05-.28c-.03-.09-.08-.16-.15-.23-.06-.06-.14-.12-.23-.15-.09-.04-.18-.06-.28-.06h-.91v.79c0,.08-.03.14-.08.19-.05.05-.12.08-.21.08s-.16-.02-.2-.08c-.05-.05-.08-.11-.08-.19v-1.06Z"/>
      <path class="cls-1" d="m119.1,31.8c0-.08.03-.14.08-.19.05-.05.12-.08.21-.08s.16.03.21.08c.05.05.08.12.08.19v3.73c0,.08-.03.14-.08.19-.05.05-.12.08-.21.08s-.15-.03-.21-.08c-.05-.05-.08-.11-.08-.19v-1.65h-1.22c-.08,0-.14-.02-.18-.07-.05-.05-.07-.11-.07-.19,0-.07.02-.14.07-.19.04-.05.11-.08.18-.08h1.22v-1.55Zm-2.23,0c0-.08.02-.14.08-.19.05-.05.11-.08.2-.08s.16.03.21.08c.05.05.08.12.08.19v3.73c0,.08-.03.14-.08.19-.05.05-.12.08-.21.08s-.15-.03-.2-.08c-.05-.05-.08-.11-.08-.19v-3.73Z"/>
      <path class="cls-1" d="m123.02,31.8c0-.08.02-.14.08-.19.05-.05.12-.08.21-.08s.15.03.21.08c.05.05.08.12.08.19v3.73c0,.08-.03.14-.08.19-.05.05-.12.08-.21.08s-.16-.03-.21-.08c-.05-.05-.08-.11-.08-.19v-3.73Z"/>
      <path class="cls-1" d="m129.27,35.47c0,.08-.02.14-.07.19-.05.05-.11.07-.19.07h-.66c-.21,0-.42-.04-.59-.12-.18-.08-.34-.19-.47-.32-.14-.14-.25-.29-.32-.47-.08-.19-.12-.38-.12-.58v-.22c0-.07.03-.14.07-.19.05-.05.12-.08.21-.08s.15.03.21.08c.05.05.08.12.08.19v.22c0,.14.02.26.07.37.05.12.11.22.2.3.09.09.19.16.31.2.11.05.24.08.37.08h.66c.08,0,.14.02.19.07.05.06.07.12.07.19m-.07-3.61c0,.08-.02.14-.07.19-.05.05-.11.07-.18.07h-.6c-.13,0-.25.02-.37.08-.12.05-.22.11-.31.21-.09.09-.15.19-.2.3-.05.12-.07.24-.07.38v.22c0,.07-.03.14-.08.19-.05.05-.12.08-.21.08s-.16-.03-.21-.08c-.05-.05-.07-.11-.07-.19v-.22c0-.2.04-.4.12-.58.08-.18.19-.34.32-.47.13-.14.3-.25.48-.33.18-.07.38-.12.59-.12h.6c.07,0,.13.03.18.08.05.05.07.11.07.19"/>
      <path class="cls-1" d="m136.8,34.75c0,.08-.03.14-.08.19-.06.05-.12.07-.21.07s-.15-.03-.21-.07c-.05-.05-.07-.11-.07-.19v-2.17c0-.08.02-.14.07-.19.05-.05.12-.08.21-.08s.15.03.21.08c.05.05.08.11.08.19v2.17Zm2.16-1.53c0,.07-.02.14-.08.19-.05.05-.12.08-.21.08s-.16-.03-.21-.08c-.05-.05-.08-.11-.08-.19v-.13c0-.14-.02-.26-.07-.37-.04-.12-.11-.22-.2-.31-.09-.09-.19-.16-.3-.21-.12-.05-.24-.08-.37-.08h-1.13c-.08,0-.14-.02-.18-.07-.05-.05-.06-.11-.06-.19s.02-.14.06-.19c.04-.05.11-.08.18-.08h1.13c.22,0,.41.04.59.12.18.08.34.19.47.32.14.13.24.29.33.47.08.18.12.38.12.58v.13Zm0,1.02c0,.2-.04.39-.12.57-.08.18-.19.34-.32.48-.14.14-.3.24-.48.33-.18.08-.38.12-.6.12h-1.14c-.08,0-.14-.02-.18-.07-.05-.05-.06-.11-.06-.19,0-.08.02-.14.06-.19.04-.05.11-.07.18-.07h1.14c.13,0,.26-.03.37-.08.12-.05.22-.12.31-.21.08-.09.15-.19.2-.3.04-.12.06-.24.06-.37v-.31c0-.07.03-.14.08-.19.05-.05.12-.08.21-.08s.16.03.21.08c.06.05.08.12.08.19v.31Z"/>
      <path class="cls-1" d="m144.62,35.47c0,.08-.02.14-.07.19-.04.05-.11.07-.18.07h-1.87c-.19,0-.28-.09-.28-.27v-1.86c0-.18.1-.27.28-.27h1.46c.07,0,.14.03.19.08.04.05.07.11.07.19,0,.08-.02.14-.07.19-.05.05-.11.07-.19.07h-1.17v1.32h1.58c.07,0,.14.02.18.07.05.06.07.12.07.19m.03-3.61c0,.08-.02.14-.07.19-.05.05-.11.07-.19.07h-1.61v.77c0,.08-.03.14-.08.19-.05.05-.12.08-.21.08s-.15-.02-.2-.08c-.05-.05-.08-.11-.08-.19v-1.04c0-.18.09-.27.28-.27h1.9c.08,0,.14.03.19.08.05.05.07.11.07.19"/>
      <path class="cls-1" d="m147.55,35.47c0-.08.02-.14.07-.19.05-.05.11-.07.19-.07h1.11c.1,0,.18-.02.26-.05.08-.04.15-.08.21-.14.06-.06.11-.13.14-.21.03-.08.04-.17.04-.26,0-.08-.01-.15-.03-.22-.02-.07-.05-.13-.1-.18-.04-.05-.09-.1-.16-.13-.06-.04-.13-.08-.2-.09-.06-.02-.11-.05-.15-.1-.03-.05-.05-.11-.05-.18,0-.08.03-.14.08-.19.05-.05.11-.08.19-.08.13,0,.26.04.38.11.12.07.22.17.31.29.09.11.16.24.21.38s.07.27.07.4c0,.17-.03.32-.09.47-.07.14-.15.27-.26.38-.11.11-.24.2-.38.26-.15.06-.31.1-.49.1h-1.11c-.08,0-.14-.02-.19-.07-.04-.05-.07-.11-.07-.19m2.12-3.88c.08,0,.13.03.18.08.05.05.07.11.07.19s-.02.14-.07.19c-.05.05-.11.07-.18.07h-1.06c-.08,0-.16.01-.23.05-.08.03-.14.07-.19.13-.05.05-.1.11-.12.19-.03.07-.04.15-.04.23,0,.07,0,.13.03.2.02.06.04.11.08.16.03.04.08.08.13.12.05.03.1.06.16.08.06.02.11.05.15.1.04.05.06.11.06.18,0,.08-.03.15-.08.2-.05.05-.11.07-.19.07-.03,0-.05,0-.07,0-.01,0-.03,0-.04,0-.12-.04-.22-.09-.32-.17-.1-.07-.18-.16-.25-.25-.08-.1-.13-.2-.17-.31-.04-.11-.06-.24-.06-.36,0-.16.03-.3.09-.44.06-.13.14-.25.25-.36.1-.1.22-.19.36-.24.14-.06.29-.09.45-.09h1.06Z"/>
      <path class="cls-1" d="m153.23,31.8c0-.08.03-.14.08-.19.05-.05.12-.08.2-.08.09,0,.16.03.21.08.05.05.08.12.08.19v3.73c0,.08-.02.14-.08.19-.05.05-.12.08-.21.08-.08,0-.15-.03-.2-.08-.05-.05-.08-.11-.08-.19v-3.73Z"/>
      <path class="cls-1" d="m158.69,34.01c-.08,0-.14-.02-.18-.08-.04-.05-.07-.11-.07-.19s.03-.14.07-.19c.04-.05.11-.08.18-.08h1.02c.08,0,.14.02.19.08.05.05.07.11.07.19s-.02.14-.07.19c-.04.05-.11.08-.19.08h-1.02Zm1.28,1.46c-.01.18-.11.27-.29.27h-1.21c-.2,0-.38-.04-.55-.11-.17-.07-.32-.17-.45-.3-.12-.12-.23-.27-.3-.44-.08-.17-.11-.35-.11-.54v-.53c0-.08.03-.14.08-.19.05-.05.12-.08.21-.08s.15.03.21.08c.05.05.08.11.08.19v.53c0,.12.02.23.06.33.04.11.09.2.18.28.08.08.17.14.27.19.11.05.22.07.33.07h.93v-.74c0-.08.03-.14.08-.19.05-.05.12-.08.21-.08.09,0,.16.02.21.08.05.05.08.12.08.19v1.01Zm-.43-3.88c.07,0,.14.03.18.08.05.05.07.11.07.19s-.03.14-.07.19c-.05.05-.11.07-.18.07h-.97c-.13,0-.25.02-.37.08-.12.05-.22.11-.3.21-.09.09-.15.19-.2.3-.05.12-.07.24-.07.38,0,.08-.03.14-.08.19-.05.05-.12.08-.21.08s-.16-.02-.21-.08c-.05-.05-.08-.11-.08-.19,0-.2.04-.4.12-.58.08-.18.19-.34.32-.47.14-.14.3-.25.48-.33.18-.07.37-.12.59-.12h.97Z"/>
      <path class="cls-1" d="m165.82,31.8c0-.08.03-.14.08-.19.05-.05.12-.08.2-.08s.16.03.21.08c.05.05.08.12.08.19v3.38c0,.09-.01.16-.04.24-.03.08-.08.14-.13.2-.06.05-.12.1-.2.14-.08.03-.16.05-.26.05-.3,0-.49-.12-.59-.37l-.49-1.32s0-.05-.01-.06c0-.02,0-.04,0-.05,0-.07.02-.14.08-.2.05-.05.12-.08.2-.08.05,0,.1.01.15.04.05.03.08.07.1.13l.48,1.32s.03.05.08.05c.06,0,.08-.03.08-.09v-3.38Zm-2.63,3.73v-3.39c0-.08.02-.16.05-.24.04-.08.08-.14.14-.2.05-.06.12-.1.19-.13.08-.03.16-.05.26-.05.29,0,.48.12.58.37l.49,1.3s.01.04.01.05c0,.02,0,.04,0,.06,0,.08-.03.14-.08.19-.05.05-.12.08-.2.08-.06,0-.11-.02-.16-.04-.04-.03-.08-.08-.1-.13l-.46-1.3s-.04-.04-.08-.04c-.06,0-.09.02-.09.09v3.39c0,.08-.03.14-.08.19-.05.05-.12.08-.21.08-.09,0-.16-.03-.21-.08-.05-.05-.08-.11-.08-.19"/>
      <path class="cls-1" d="m173.62,31.8c0-.08.02-.14.08-.19.05-.05.11-.08.2-.08.08,0,.16.03.21.08.05.05.08.12.08.19v2.95c0,.08-.03.14-.08.19-.05.05-.12.07-.21.07-.09,0-.16-.02-.2-.07-.05-.05-.08-.11-.08-.19v-2.95Zm2.09,3.4c.08,0,.14.02.19.07.05.05.07.11.07.19s-.02.14-.07.19c-.05.05-.11.08-.19.08h-1.95c-.08,0-.14-.02-.18-.08-.05-.05-.07-.12-.07-.19s.02-.14.07-.19c.04-.05.11-.07.18-.07h1.95Z"/>
      <path class="cls-1" d="m181.84,35.56s0,.07-.02.1c-.01.03-.03.06-.06.08-.02.02-.05.04-.09.05-.03.01-.07.02-.12.02-.07,0-.13-.02-.18-.05-.05-.04-.08-.09-.09-.15l-.3-1.09h-.93c-.08,0-.14-.02-.18-.08-.05-.05-.07-.11-.07-.19s.02-.14.07-.19c.04-.05.11-.08.18-.08h1.16c.15,0,.23.06.27.2l.36,1.29s0,.03.01.04v.04Zm-.6-2.03c0,.08-.03.14-.08.19-.05.05-.12.08-.21.08-.07,0-.13-.02-.17-.05-.04-.03-.08-.08-.09-.13l-.39-1.46c-.02-.06-.06-.09-.11-.09-.04,0-.08.02-.1.09l-1,3.46c-.02.06-.05.11-.1.15-.05.03-.11.05-.18.05-.09,0-.16-.02-.21-.08-.05-.05-.07-.11-.07-.19v-.04s0-.03,0-.04l1.03-3.48c.02-.07.05-.13.09-.19.04-.05.09-.11.14-.15.05-.04.11-.07.18-.1.07-.02.14-.03.21-.03s.16,0,.22.03c.07.02.13.05.18.1.05.04.1.09.14.15.04.06.07.12.09.19l.41,1.47s0,.02,0,.03v.03Z"/>
      <path class="cls-1" d="m187.7,34.53c0,.17-.03.32-.09.47-.06.14-.15.27-.26.38-.11.11-.24.2-.39.26-.15.06-.31.1-.48.1h-1.31c-.19,0-.28-.09-.28-.27v-1.86c0-.18.09-.27.28-.27h.75c.08,0,.14.02.18.08.05.05.07.12.07.2s-.02.14-.07.19c-.05.05-.11.07-.18.07h-.46v1.33h1.02c.09,0,.18-.02.26-.06.08-.03.15-.08.21-.14.06-.06.11-.13.14-.21.03-.08.04-.17.04-.26,0-.04,0-.09-.02-.13-.01-.04-.03-.08-.04-.12-.02-.04-.03-.08-.04-.11-.01-.03-.02-.07-.02-.1,0-.08.03-.14.08-.19.05-.05.11-.08.2-.08s.15.03.21.07c.05.05.09.12.12.19.03.08.05.16.07.24,0,.09.01.17.01.23m-.08-1.82c0,.13-.02.26-.07.38-.04.12-.11.23-.18.32-.08.1-.17.18-.28.25-.11.07-.23.12-.37.15-.01,0-.02,0-.03,0h-.01c-.08,0-.15-.03-.19-.08-.05-.05-.08-.11-.08-.19,0-.07.01-.12.04-.17.04-.05.08-.08.14-.1.07-.01.13-.03.19-.07.06-.04.11-.08.15-.13.04-.05.07-.11.1-.17.02-.06.03-.13.03-.2,0-.09-.01-.16-.04-.23-.02-.07-.06-.13-.12-.19-.05-.05-.12-.09-.19-.12-.08-.03-.15-.05-.23-.05h-1.02v.73c0,.08-.03.14-.08.19-.05.05-.12.07-.21.07-.08,0-.15-.02-.21-.07-.05-.05-.07-.11-.07-.19v-1c0-.17.09-.26.27-.26h1.33c.16,0,.32.03.45.09.13.06.25.14.36.24.1.1.19.22.24.36.06.13.09.28.09.43"/>
      <path class="cls-1" d="m35.28,7.93c0,.1,0,.2-.02.28-.01.08-.03.17-.06.26l-4.57,15.47c-.13.44-.32.84-.57,1.2-.25.36-.55.67-.89.93-.34.26-.72.46-1.13.6-.41.14-.86.21-1.34.21-1.01,0-1.85-.27-2.54-.81-.68-.54-1.16-1.25-1.41-2.13l-4.61-15.47c-.03-.06-.05-.14-.06-.24-.01-.1-.02-.2-.02-.3,0-.46.16-.86.47-1.2.31-.33.74-.5,1.3-.5.43,0,.79.1,1.09.31.31.21.52.5.63.87l4.48,15.55c.11.34.34.5.68.5.3,0,.5-.17.62-.5l4.48-15.55c.1-.33.29-.62.57-.84.28-.23.65-.34,1.11-.34.58,0,1.03.17,1.34.52.31.35.46.74.46,1.18Z"/>
      <path class="cls-1" d="m55.21,11.8c0-.74.14-1.42.43-2.06.29-.64.68-1.2,1.17-1.69.49-.48,1.05-.86,1.7-1.14.64-.28,1.35-.42,2.12-.42h.37l3.11.08c.52.03.91.2,1.19.52.28.32.42.71.42,1.19,0,.23-.04.45-.12.66s-.19.39-.32.54c-.14.16-.31.27-.52.36-.21.08-.44.12-.69.11l-3.43-.08c-.27-.01-.53.03-.76.13-.23.11-.44.24-.61.42-.18.17-.3.38-.37.62-.07.24-.11.49-.11.76v13.36c0,.49-.17.89-.49,1.2-.33.31-.77.46-1.31.46s-.97-.15-1.29-.46c-.32-.31-.47-.71-.47-1.2v-13.36Z"/>
      <path class="cls-1" d="m84.95,7.92c0,.14-.02.27-.05.39-.03.11-.06.21-.09.27l-5.58,18.29c-.2.64-.49,1.24-.88,1.78-.4.54-.85,1.01-1.37,1.4-.52.39-1.09.7-1.71.92-.61.22-1.27.33-1.97.33h-.4c-.12,0-.24,0-.34-.02-.11,0-1.85,0-1.94-.02l-1.43-.11c-.53-.04-.93-.21-1.2-.53-.27-.31-.41-.7-.41-1.18s.14-.9.42-1.22c.28-.33.65-.48,1.11-.48h.15l3.94.19c1.37,0,2.27-.68,2.71-2.03l5.48-18.43c.13-.41.35-.73.65-.94.3-.21.66-.32,1.07-.32.55,0,1,.16,1.33.48.33.32.49.73.49,1.22Zm-9.55,11.36c.08.25.12.47.12.68,0,.48-.17.87-.49,1.19-.33.32-.75.47-1.27.47-.37,0-.71-.09-1-.27-.29-.18-.51-.46-.65-.83l-4.31-12.06c-.02-.09-.04-.17-.05-.25-.01-.08-.02-.17-.02-.29,0-.49.16-.89.47-1.22.32-.32.75-.48,1.29-.48.48,0,.86.11,1.13.33.28.22.48.49.59.81l4.19,11.92Z"/>
      <path class="cls-1" d="m92.37,0h1.78c.55,0,.99.17,1.32.49.33.33.5.73.5,1.21v23.45c0,.49-.17.89-.5,1.2-.33.31-.77.46-1.32.46s-.98-.15-1.3-.46c-.32-.31-.48-.71-.48-1.2V0Z"/>
      <path class="cls-1" d="m196.45,13.9c0-.61-.09-1.17-.25-1.7-.17-.53-.43-.99-.78-1.38-.35-.4-.76-.7-1.24-.93-.48-.23-.99-.34-1.55-.34-.03,0-.12,0-.29.03-.17.02-.35.04-.56.07-.21.02-.44.05-.69.07-.25.02-.41.03-.47.03-.49,0-.87-.16-1.15-.47s-.42-.7-.42-1.14.12-.84.36-1.18c.24-.33.6-.52,1.07-.56.54-.04,1-.08,1.38-.13.38-.05.67-.08.89-.08,1.05,0,2.01.21,2.88.63.87.42,1.63.98,2.29,1.68.65.7,1.17,1.52,1.55,2.46.38.93.57,1.93.57,2.97v11.25c0,.49-.17.89-.5,1.2-.33.31-.77.46-1.33.46s-.97-.15-1.29-.47c-.32-.31-.47-.71-.47-1.2v-11.26Zm-12.64,1.05c0-.48.16-.88.48-1.21.32-.33.75-.5,1.29-.5s.98.17,1.31.5c.33.33.49.73.49,1.21v10.21c0,.49-.16.89-.49,1.2-.33.31-.77.46-1.31.46s-.97-.15-1.29-.46c-.32-.31-.48-.71-.48-1.2v-10.21Zm0-13.24V0h1.76c.54,0,.98.17,1.31.49.33.33.49.73.49,1.21v7.72c0,.49-.16.89-.49,1.2-.33.31-.77.46-1.31.46s-.97-.15-1.29-.46c-.32-.31-.48-.71-.48-1.2V1.71Z"/>
      <path class="cls-1" d="m202.92,10.87v-1.71h1.78c.55,0,.99.17,1.32.49.33.33.5.73.5,1.21v14.29c0,.49-.16.89-.5,1.2-.33.31-.77.46-1.32.46s-.98-.15-1.3-.46c-.32-.31-.48-.71-.48-1.2v-14.29Zm0-9.16V0h1.78c.55,0,.99.17,1.32.49.33.33.5.73.5,1.21v1.86c0,.48-.16.87-.5,1.19-.33.31-.77.47-1.32.47s-.98-.16-1.3-.47c-.32-.32-.48-.71-.48-1.19v-1.86Z"/>
      <path class="cls-1" d="m221.97,14.03c0-.62-.09-1.19-.27-1.72-.18-.53-.45-.98-.82-1.36-.37-.37-.81-.67-1.32-.88-.51-.21-1.06-.32-1.66-.32-.1,0-.26,0-.48.01-.22,0-.4,0-.54,0-.17.02-.34.02-.5.02l-3.04.12c-.24.01-.46-.02-.64-.11-.18-.09-.35-.2-.5-.35-.15-.15-.28-.32-.37-.53-.09-.21-.14-.43-.14-.68,0-.45.15-.84.44-1.17.29-.33.64-.51,1.06-.53l3.43-.16c.2-.01.39-.02.57-.03.19,0,.33-.01.42-.01h.43c1.08,0,2.08.2,2.98.61.91.41,1.69.96,2.36,1.65.67.7,1.2,1.52,1.59,2.45.39.94.58,1.93.58,2.97v11.13c0,.49-.16.89-.49,1.2-.32.31-.76.46-1.32.46s-.97-.15-1.29-.46c-.32-.31-.47-.71-.47-1.2v-11.13Zm-12.09.99c0-.48.16-.88.48-1.21.32-.33.75-.5,1.29-.5s.98.16,1.31.5c.33.33.49.73.49,1.21v10.15c0,.49-.16.89-.49,1.2-.33.31-.76.46-1.31.46s-.97-.15-1.29-.46c-.32-.31-.48-.71-.48-1.2v-10.15Z"/>
      <path class="cls-1" d="m232.07,29.16c0-.23.04-.45.13-.65.08-.2.19-.38.33-.52.14-.15.3-.27.48-.36.19-.09.4-.13.63-.13h4.07c.47,0,.9-.09,1.31-.26.41-.17.77-.42,1.07-.73.31-.31.54-.67.68-1.07.14-.41.21-.84.21-1.31v-9.13c0-.48.18-.88.52-1.21.35-.33.76-.49,1.24-.49s.9.17,1.26.49c.36.33.54.73.54,1.21v9.13c0,.93-.18,1.8-.53,2.61-.36.81-.84,1.52-1.45,2.14-.61.61-1.33,1.1-2.15,1.45-.82.36-1.72.53-2.7.53h-4.07c-.23,0-.44-.04-.63-.13-.19-.09-.35-.22-.48-.37-.14-.15-.25-.33-.33-.54-.09-.21-.13-.43-.13-.66Zm10.91-20.85c0,.54-.16.97-.5,1.29-.33.32-.75.45-1.27.42l-3.84-.23-.83-.04c-.61,0-1.19.14-1.74.42-.55.28-1.05.65-1.48,1.11-.43.47-.76,1-.98,1.6-.22.6-.33,1.23-.33,1.87v1.26c0,.67.11,1.3.34,1.89.23.59.55,1.09.98,1.52.43.43.75.67,1.29.96.7.38,2.26.23,2.26.23.23-.01.45.03.66.11.21.09.38.21.52.37.14.15.25.34.32.55.07.21.11.43.11.67,0,.48-.13.87-.41,1.16-.27.3-.64.46-1.12.51l-1.13.08c-.77.04-1.84-.17-2.76-.61-.92-.44-1.72-1.03-2.4-1.77-.68-.74-1.22-1.6-1.62-2.58-.4-.98-.6-2.01-.6-3.08v-1.26c0-1.07.22-2.11.65-3.12.43-1,1.01-1.9,1.73-2.69.72-.79,1.57-1.42,2.53-1.89s2-.71,3.11-.71h.35c.13,0,.34.01.64.04l4.03.27c.21.01.4.06.58.15.18.09.34.21.47.36.14.15.24.32.32.52.08.19.11.41.11.64Z"/>
      <path class="cls-1" d="m89.39,16.68c0,1.03-.84,1.86-1.86,1.86s-1.86-.84-1.86-1.86.83-1.86,1.86-1.86,1.86.83,1.86,1.86Z"/>
      <path class="cls-1" d="m167.35,16.68c0,1.03-.83,1.86-1.86,1.86s-1.86-.84-1.86-1.86.83-1.86,1.86-1.86,1.86.83,1.86,1.86Z"/>
      <path class="cls-1" d="m137.68,0h1.78c.55,0,.99.17,1.32.49.33.33.5.73.5,1.21v23.45c0,.49-.16.89-.5,1.2-.33.31-.77.46-1.32.46s-.98-.15-1.3-.46c-.32-.31-.48-.71-.48-1.2V0Z"/>
      <path class="cls-1" d="m115.08,8.28v-1.71h2.77c.48,0,.86.17,1.16.5.3.33.45.73.45,1.21s-.15.88-.45,1.19c-.3.32-.69.47-1.16.47h-1.2c-.48,0-.86-.16-1.14-.47-.28-.31-.43-.71-.43-1.19Zm-9.65,0c0-.48.14-.88.43-1.21.28-.33.67-.5,1.14-.5h2.42V0h1.76c.56,0,1,.17,1.32.49.32.33.48.73.48,1.21v19.62c0,.27.04.52.11.75.07.23.2.43.38.61.18.17.39.31.64.42.25.11.51.16.78.16h.16l2.56-.19c.34-.01.62.02.84.11.22.08.41.21.55.36.14.15.25.34.34.56.08.22.12.44.12.67,0,.41-.12.78-.37,1.11-.24.33-.64.52-1.18.55l-2.67.19h-.35c-.8,0-1.53-.14-2.18-.42-.65-.28-1.22-.66-1.71-1.14-.48-.48-.87-1.05-1.15-1.68-.28-.64-.43-1.32-.43-2.06v-11.38h-2.42c-.48,0-.86-.16-1.14-.47-.28-.31-.43-.71-.43-1.19Z"/>
      <path class="cls-1" d="m131.07,8.28v-1.71h2.83c.48,0,.86.17,1.16.5.3.33.45.73.45,1.21s-.15.88-.45,1.19c-.3.32-.69.47-1.16.47h-1.26c-.48,0-.86-.16-1.14-.47-.28-.31-.43-.71-.43-1.19Zm-9.59,0c0-.48.14-.88.43-1.21.28-.33.67-.5,1.14-.5h2.42V0h1.76c.56,0,1,.17,1.32.49.32.33.48.73.48,1.21v19.62c0,.27.04.52.11.75.07.23.2.43.38.61.18.17.39.31.64.42.25.11.51.16.78.16h.16l2.56-.19c.34-.01.62.02.84.11.22.08.41.21.55.36.14.15.25.34.34.56.08.22.12.44.12.67,0,.41-.12.78-.37,1.11-.24.33-.64.52-1.18.55l-2.67.19h-.35c-.8,0-1.53-.14-2.18-.42-.65-.28-1.22-.66-1.71-1.14-.48-.48-.87-1.05-1.15-1.68-.28-.64-.43-1.32-.43-2.06v-11.38h-2.42c-.48,0-.86-.16-1.14-.47-.28-.31-.43-.71-.43-1.19Z"/>
      <path class="cls-1" d="m176.64,8.28v-1.71h2.82c.48,0,.86.17,1.16.5.3.33.45.73.45,1.21s-.15.88-.45,1.19c-.3.32-.69.47-1.16.47h-1.25c-.48,0-.86-.16-1.14-.47-.29-.31-.43-.71-.43-1.19Zm-9.6,0c0-.48.14-.88.43-1.21.28-.33.67-.5,1.14-.5h2.42V0h1.76c.55,0,.99.17,1.32.49.32.33.48.73.48,1.21v19.62c0,.27.04.52.11.75.07.23.2.43.38.61.18.17.39.31.64.42.25.11.51.16.78.16h.16l2.56-.19c.34-.01.62.02.84.11.22.08.41.21.55.36.14.15.25.34.34.56.08.22.12.44.12.67,0,.41-.12.78-.37,1.11-.24.33-.64.52-1.18.55l-2.67.19h-.35c-.8,0-1.53-.14-2.18-.42-.65-.28-1.22-.66-1.71-1.14-.48-.48-.87-1.05-1.15-1.68-.28-.64-.43-1.32-.43-2.06v-11.38h-2.42c-.48,0-.86-.16-1.14-.47-.29-.31-.43-.71-.43-1.19Z"/>
      <path class="cls-1" d="m99.46,10.87v-1.71h1.78c.55,0,.99.17,1.32.49.33.33.5.73.5,1.21v14.29c0,.49-.17.89-.5,1.2-.33.31-.77.46-1.32.46s-.98-.15-1.3-.46c-.32-.31-.48-.71-.48-1.2v-14.29Zm0-9.16V0h1.78c.55,0,.99.17,1.32.49.33.33.5.73.5,1.21v1.86c0,.48-.17.87-.5,1.19-.33.31-.77.47-1.32.47s-.98-.16-1.3-.47c-.32-.32-.48-.71-.48-1.19v-1.86Z"/>
      <path class="cls-1" d="m12.33,23.19c.41,0,.78.17,1.11.49.33.33.49.74.49,1.21s-.16.87-.49,1.19c-.33.32-.7.47-1.11.47h-4.3c-1.19,0-2.26-.19-3.22-.57-.96-.38-1.8-.91-2.53-1.59-.72-.68-1.29-1.48-1.69-2.42-.4-.94-.59-1.77-.59-2.88,0-.48.16-.88.48-1.21.32-.33.74-.5,1.29-.5s.99.17,1.32.5c.32.33.48.73.48,1.21,0,.63.09,1.02.28,1.54.19.52.49.97.9,1.36.41.38.89.67,1.45.88.56.21,1.17.31,1.83.31h4.3Zm-6.33-6.54c0-.48.14-.88.43-1.21.28-.33.66-.49,1.14-.49h5.55v-.41c0-.66-.11-1.29-.34-1.89-.23-.59-.56-1.11-1.01-1.56-.45-.44-.96-.79-1.55-1.05-.59-.26-1.22-.39-1.89-.39s-1.28.12-1.87.37c-.59.25-1.1.58-1.55,1-.44.42-.78.91-1.02,1.49-.23.57-.31.94-.31,1.59,0,.49-.16.9-.48,1.22-.32.32-.76.49-1.32.49-.52,0-.94-.16-1.27-.47-.33-.31-.49-.72-.49-1.24,0-1.12.19-1.93.65-2.91.46-.97,1.06-1.83,1.8-2.56.74-.73,1.61-1.3,2.61-1.72,1-.42,2.08-.63,3.25-.63s2.28.22,3.28.66c1,.44,1.88,1.04,2.62,1.79.75.75,1.34,1.63,1.78,2.62.44.99.66,2.05.66,3.18v2.11c0,.23-.05.45-.14.66-.09.21-.21.38-.37.53-.16.15-.33.26-.54.35-.21.08-.43.12-.66.12h-7.41c-.48,0-.86-.16-1.14-.47-.28-.31-.43-.71-.43-1.19Z"/>
      <path class="cls-1" d="m48.43,23.19c.41,0,.78.17,1.11.49.33.33.49.74.49,1.21s-.16.87-.49,1.19c-.33.32-.7.47-1.11.47h-4.3c-1.19,0-2.26-.19-3.22-.57-.96-.38-1.8-.91-2.53-1.59-.72-.68-1.29-1.48-1.69-2.42-.4-.94-.59-1.77-.59-2.88,0-.48.16-.88.48-1.21.32-.33.74-.5,1.29-.5s.99.17,1.32.5c.32.33.48.73.48,1.21,0,.63.09,1.02.28,1.54.19.52.49.97.9,1.36.41.38.89.67,1.45.88.56.21,1.17.31,1.83.31h4.3Zm-6.33-6.54c0-.48.14-.88.43-1.21.28-.33.66-.49,1.14-.49h5.55v-.41c0-.66-.11-1.29-.34-1.89-.23-.59-.56-1.11-1.01-1.56-.45-.44-.96-.79-1.55-1.05-.59-.26-1.22-.39-1.89-.39s-1.28.12-1.87.37c-.59.25-1.1.58-1.55,1-.44.42-.78.91-1.02,1.49-.23.57-.31.94-.31,1.59,0,.49-.16.9-.48,1.22-.32.32-.76.49-1.32.49-.52,0-.94-.16-1.27-.47-.33-.31-.49-.72-.49-1.24,0-1.12.19-1.93.65-2.91.46-.97,1.06-1.83,1.8-2.56.74-.73,1.61-1.3,2.61-1.72,1-.42,2.08-.63,3.25-.63s2.28.22,3.28.66c1,.44,1.88,1.04,2.62,1.79.75.75,1.34,1.63,1.78,2.62.44.99.66,2.05.66,3.18v2.11c0,.23-.05.45-.14.66s-.21.38-.37.53c-.16.15-.33.26-.54.35-.21.08-.43.12-.66.12h-7.41c-.48,0-.86-.16-1.14-.47-.28-.31-.43-.71-.43-1.19Z"/>
      <path class="cls-1" d="m156.48,23.19c.41,0,.78.17,1.11.49.33.33.49.74.49,1.21s-.16.87-.49,1.19c-.33.32-.7.47-1.11.47h-4.3c-1.19,0-2.26-.19-3.23-.57-.96-.38-1.8-.91-2.53-1.59-.72-.68-1.29-1.48-1.69-2.42-.4-.94-.59-1.77-.59-2.88,0-.48.16-.88.48-1.21.32-.33.74-.5,1.29-.5s.99.17,1.32.5c.32.33.48.73.48,1.21,0,.63.09,1.02.28,1.54.19.52.49.97.9,1.36.41.38.89.67,1.45.88.56.21,1.17.31,1.83.31h4.3Zm-6.07-6.54c0-.48.14-.88.43-1.21.28-.33.66-.49,1.14-.49h5.3v-.41c0-.66-.11-1.29-.34-1.89-.23-.59-.56-1.11-1.01-1.56-.45-.44-.97-.79-1.55-1.05-.59-.26-1.22-.39-1.89-.39s-1.28.12-1.87.37c-.59.25-1.1.58-1.55,1-.44.42-.78.91-1.02,1.49-.23.57-.31.94-.31,1.59,0,.49-.16.9-.48,1.22-.32.32-.76.49-1.32.49-.52,0-.94-.16-1.27-.47-.33-.31-.49-.72-.49-1.24,0-1.12.19-1.93.65-2.91.46-.97,1.06-1.83,1.8-2.56.74-.73,1.61-1.3,2.61-1.72.99-.42,2.08-.63,3.25-.63s2.28.22,3.29.66c1,.44,1.87,1.04,2.62,1.79.75.75,1.34,1.63,1.78,2.62.44.99.66,2.05.66,3.18v2.11c0,.23-.05.45-.14.66s-.21.38-.37.53c-.16.15-.34.26-.54.35-.21.08-.43.12-.66.12h-7.16c-.48,0-.86-.16-1.14-.47-.28-.31-.43-.71-.43-1.19Z"/>
    </g>
  </g>
</svg>