<svg width="25" height="23" viewBox="0 0 25 23" fill="none" xmlns="http://www.w3.org/2000/svg">
<path d="M12.5 0.875C19.0239 0.875 24.3125 4.997 24.3125 10.0831C24.3125 15.1681 19.0239 19.2901 12.5 19.2901C11.8504 19.2905 11.2014 19.2491 10.5571 19.1664L5.59812 22.4097C5.0345 22.7079 4.83538 22.6753 5.06713 21.9451L6.07062 17.8074C2.83062 16.1649 0.6875 13.3186 0.6875 10.0831C0.6875 4.99813 5.97613 0.875 12.5 0.875ZM19.1454 9.9425L20.7991 8.3405C20.8946 8.2414 20.9478 8.10913 20.9476 7.97155C20.9475 7.83397 20.8939 7.70183 20.7982 7.60296C20.7026 7.50409 20.5723 7.4462 20.4348 7.4415C20.2973 7.4368 20.1633 7.48565 20.0611 7.57775L17.8921 9.677V7.94225C17.8921 7.80142 17.8362 7.66636 17.7366 7.56678C17.637 7.4672 17.502 7.41125 17.3611 7.41125C17.2203 7.41125 17.0852 7.4672 16.9857 7.56678C16.8861 7.66636 16.8301 7.80142 16.8301 7.94225V10.8189C16.8102 10.9009 16.8102 10.9866 16.8301 11.0686V12.6875C16.8301 12.8283 16.8861 12.9634 16.9857 13.063C17.0852 13.1626 17.2203 13.2185 17.3611 13.2185C17.502 13.2185 17.637 13.1626 17.7366 13.063C17.8362 12.9634 17.8921 12.8283 17.8921 12.6875V11.1541L18.3725 10.6895L19.979 12.9766C20.0191 13.0337 20.0701 13.0824 20.129 13.1198C20.1879 13.1572 20.2536 13.1826 20.3223 13.1946C20.3911 13.2066 20.4615 13.205 20.5296 13.1898C20.5977 13.1746 20.6621 13.1461 20.7192 13.106C20.7764 13.0659 20.825 13.0149 20.8624 12.956C20.8998 12.8971 20.9252 12.8314 20.9372 12.7627C20.9493 12.6939 20.9476 12.6235 20.9324 12.5554C20.9172 12.4873 20.8887 12.4228 20.8486 12.3657L19.1454 9.94137V9.9425ZM15.8176 12.107H14.1751V7.95913C14.1688 7.82267 14.1102 7.69389 14.0114 7.59954C13.9126 7.5052 13.7813 7.45256 13.6447 7.45256C13.5081 7.45256 13.3767 7.5052 13.278 7.59954C13.1792 7.69389 13.1205 7.82267 13.1142 7.95913V12.638C13.1142 12.9305 13.3505 13.169 13.6441 13.169H15.8176C15.9585 13.169 16.0935 13.1131 16.1931 13.0135C16.2927 12.9139 16.3486 12.7788 16.3486 12.638C16.3486 12.4972 16.2927 12.3621 16.1931 12.2625C16.0935 12.1629 15.9585 12.107 15.8176 12.107ZM9.2285 10.8785L10.0115 8.95813L10.7292 10.8785H9.2285ZM12.0669 11.4275L12.0691 11.4095C12.0689 11.2757 12.0178 11.147 11.9262 11.0495L10.7495 7.8995C10.7002 7.74939 10.6062 7.61791 10.4802 7.52262C10.3541 7.42733 10.202 7.37278 10.0441 7.36625C9.88509 7.36555 9.72962 7.41329 9.59839 7.50312C9.46716 7.59296 9.36639 7.72062 9.3095 7.86912L7.44087 12.4535C7.4145 12.5181 7.40111 12.5872 7.40145 12.6569C7.40179 12.7267 7.41587 12.7956 7.44287 12.8599C7.46988 12.9242 7.50928 12.9826 7.55884 13.0317C7.60839 13.0807 7.66713 13.1196 7.73169 13.1459C7.79625 13.1723 7.86537 13.1857 7.93511 13.1854C8.00485 13.185 8.07384 13.1709 8.13814 13.1439C8.20243 13.1169 8.26078 13.0775 8.30985 13.028C8.35892 12.9784 8.39775 12.9197 8.42412 12.8551L8.79537 11.9405H11.1241L11.4605 12.8405C11.4834 12.9078 11.5195 12.9698 11.5668 13.0228C11.614 13.0759 11.6715 13.1189 11.7357 13.1494C11.7999 13.1798 11.8695 13.1971 11.9405 13.2001C12.0115 13.2031 12.0824 13.1919 12.149 13.1671C12.2155 13.1422 12.2764 13.1043 12.3281 13.0554C12.3797 13.0066 12.421 12.9479 12.4495 12.8829C12.4781 12.8178 12.4933 12.7477 12.4942 12.6766C12.4951 12.6056 12.4818 12.5351 12.455 12.4692L12.0669 11.4275ZM8.32963 7.96475C8.32963 7.82411 8.27384 7.68922 8.1745 7.58967C8.07516 7.49012 7.94038 7.43405 7.79975 7.43375H4.14913C4.0083 7.43375 3.87323 7.48969 3.77365 7.58928C3.67407 7.68886 3.61812 7.82392 3.61812 7.96475C3.61812 8.10558 3.67407 8.24064 3.77365 8.34022C3.87323 8.43981 4.0083 8.49575 4.14913 8.49575H5.45412V12.6988C5.45412 12.8396 5.51007 12.9746 5.60965 13.0742C5.70923 13.1738 5.8443 13.2298 5.98513 13.2298C6.12596 13.2298 6.26102 13.1738 6.3606 13.0742C6.46018 12.9746 6.51613 12.8396 6.51613 12.6988V8.49575H7.79862C7.93946 8.49575 8.07452 8.43981 8.1741 8.34022C8.27368 8.24064 8.32963 8.10558 8.32963 7.96475Z" fill="black"/>
</svg>
