<?xml version="1.0" encoding="UTF-8"?>
<svg id="_레이어_2" data-name="레이어 2" xmlns="http://www.w3.org/2000/svg" viewBox="0 0 299.19 299.19">
  <defs>
    <style>
      .cls-1 {
        fill: #333;
      }
    </style>
  </defs>
  <g id="_레이어_1-2" data-name="레이어 1">
    <path class="cls-1" d="m179.08,200.15c3.36,0,6.38,1.36,9.04,4,2.67,2.7,3.97,5.97,3.97,9.82s-1.3,7.1-3.97,9.65c-2.67,2.58-5.68,3.85-9.04,3.85h-34.86c-9.62,0-18.34-1.54-26.14-4.64-7.8-3.07-14.63-7.39-20.49-12.87-5.88-5.51-10.43-12.03-13.68-19.62-3.25-7.62-4.78-14.34-4.78-23.36,0-3.88,1.28-7.13,3.85-9.79,2.55-2.7,6.03-4.03,10.43-4.03s8.06,1.33,10.66,4.03c2.64,2.67,3.94,5.91,3.94,9.79,0,5.13.72,8.29,2.29,12.52,1.56,4.2,4,7.91,7.3,10.98,3.27,3.1,7.22,5.48,11.77,7.13,4.58,1.71,9.51,2.52,14.84,2.52h34.86Zm-58.42-53.06c0-3.88,1.13-7.16,3.45-9.82,2.29-2.67,5.39-4,9.24-4h52.16v-3.3c0-5.36-.9-10.49-2.72-15.3-1.85-4.81-4.58-9.04-8.17-12.61-3.62-3.59-7.8-6.4-12.58-8.52-4.75-2.09-9.88-3.13-15.3-3.13s-10.4.99-15.16,2.98c-4.75,2-8.95,4.69-12.55,8.11-3.62,3.39-6.35,7.42-8.26,12.06-1.88,4.61-2.49,7.62-2.49,12.9,0,3.97-1.3,7.3-3.94,9.91-2.61,2.64-6.2,3.94-10.69,3.94-4.17,0-7.59-1.25-10.29-3.77-2.64-2.52-3.97-5.85-3.97-10.03,0-9.1,1.54-15.71,5.25-23.65,3.71-7.91,8.58-14.81,14.61-20.72,6-5.91,13.04-10.58,21.13-13.97,8.06-3.42,16.87-5.1,26.37-5.1s18.52,1.77,26.63,5.33c8.11,3.54,15.19,8.4,21.27,14.52,6.06,6.11,10.87,13.21,14.43,21.27,3.56,8.06,5.33,16.66,5.33,25.76v17.13c0,1.88-.35,3.65-1.1,5.33-.72,1.68-1.71,3.1-2.96,4.32-1.28,1.19-2.72,2.14-4.4,2.84-1.68.67-3.45,1.01-5.36,1.01h-67.23c-3.85,0-6.96-1.3-9.24-3.85-2.32-2.55-3.45-5.8-3.45-9.65"/>
    <path class="cls-1" d="m40.34,247.66c-2.31,0-4.59-.99-6.17-2.91C12.13,218.06,0,184.26,0,149.59,0,67.11,67.11,0,149.59,0c27.5,0,54.38,7.53,77.75,21.77,3.77,2.3,4.97,7.22,2.67,10.99-2.3,3.77-7.22,4.97-10.99,2.67-20.86-12.71-44.86-19.43-69.42-19.43-73.66,0-133.59,59.93-133.59,133.59,0,30.96,10.83,61.14,30.5,84.98,2.81,3.41,2.33,8.45-1.08,11.26-1.49,1.23-3.29,1.83-5.09,1.83Z"/>
    <path class="cls-1" d="m149.59,299.19c-31.03,0-60.79-9.41-86.07-27.22-3.61-2.54-4.48-7.54-1.93-11.15,2.54-3.61,7.54-4.48,11.15-1.93,22.57,15.9,49.14,24.3,76.85,24.3,73.66,0,133.59-59.93,133.59-133.59,0-33.84-12.67-66.12-35.69-90.89-3.01-3.24-2.82-8.3.42-11.31,3.24-3.01,8.3-2.82,11.31.42,25.77,27.75,39.96,63.89,39.96,101.78,0,82.49-67.11,149.59-149.59,149.59Z"/>
  </g>
</svg>